<?xml version="1.0" encoding="utf-8"?>
<!-- Generator: Adobe Illustrator 24.1.0, SVG Export Plug-In . SVG Version: 6.00 Build 0)  -->
<svg version="1.1" id="Layer_1" xmlns="http://www.w3.org/2000/svg" xmlns:xlink="http://www.w3.org/1999/xlink" x="0px" y="0px" width="75px" height="75px"
	 viewBox="100 200 750 750" style="enable-background:new 0 0 1500 1500;" xml:space="preserve">
<g>
	<path d="M722.6,400.1c5.9,22.7,6.8,53.2-2.5,75.2c-2.1,5.3-4.8,10.5-8.1,15.5c-14.2,21.8-20.8,23.3-43.8,10.3
		c-55.7-31.5-115.1-48.4-177.6-55.7c-55.9-6.5-110.9,8.5-158.6,38.9c-16.4,10.3-31.2,21.9-44.6,34.5c-10.3,9.7-23.4,16.9-39.7,20.8
		c-23.8,5.7-43.2,0-59.3-17.6c-7-7.6-13.9-15.2-22.8-21.7c-10.9-7.9-16.9-7.3-17.1,2.7c-1.8,68.2,32.1,116.6,85.1,155.9
		c11.7,7.6,16.1,13.9,12.1,22.7c-2.3,4.9-3.2,10.2-5.3,15.2c-12.6,30.7,19.6,51.9,46,57c23.9,7.3,54.5,10.1,79.1,5.2
		c14.5-2.7,22.8-8.4,20.7-18.8c-0.3-1.6-0.2-3.3-0.1-4.9c0.6-21.1,0.5-20.6,33.5-17.1c17.4,1.8,35.1,3.4,52.2,0.5
		c11.7-2,15.4,1,14.8,8.1c-0.4,4.5-0.2,9.1-0.2,13.6c0.5,32.3,36.7,44.6,64.5,44.4c23,1.3,44.8-2.8,65-9.8
		c32-11.1,38.5-20.9,34.7-42.6c-2.6-15-3.2-30.2-5-45.4c-0.7-5.6,2-9.4,10.2-12.4c121.2-49.9,200-142.1,188-277.9
		c-6.8-43.1-19.6-76.2-42.6-113.3c-5.6-8-7.8-18.2-12.5-26.7c-14.2-25.7-40.8-41.2-70.3-40.7c-31.4-0.9-61.4,12.1-78.2,39.4
		c-12.4,19.6-24.4,39.6-36.4,59.4c-10.7,17.6-11.6,35.4,1.8,52.5c13.1,16.7,32.3,21.9,55.7,18.7c14.8-2,29.6-4.8,42.6-11.4
		c11.1-5.6,13.6-1.9,14.9,6.3C719.8,387.2,721.3,393.6,722.6,400.1z" fill="green"/>
		<text x="300" y="600" font-size="75" font-family="Poppins" font-weight="1000" fill="white">DANOZAUR</text>
</g>
</svg>
